<svg viewBox="0 0 137 24" fill="none" xmlns="http://www.w3.org/2000/svg">
    <g clip-path="url(#clip0_3636_4812)">
        <path
            d="M19.2417 8.90757L11.932 1.59796C11.3224 0.988312 10.5253 0.685547 9.72825 0.685547C8.93118 0.685547 8.1341 0.988312 7.52446 1.59796L0.214851 8.90757C0.0624385 9.05998 -0.00758869 9.26388 0.000649808 9.4616C0.00682868 9.58312 0.00476906 12.724 0.000649808 14.5551C0.000649808 14.5654 0.000649808 14.5777 0.000649808 14.588V14.6168H0.00270943C0.0130076 14.7899 0.0809751 14.9587 0.212791 15.0906L7.5224 22.4002C8.12998 23.0098 8.92706 23.3126 9.72619 23.3126C10.5253 23.3126 11.3203 23.0098 11.9279 22.4002L19.2375 15.0906C19.3797 14.9484 19.4517 14.761 19.4517 14.5736V9.42453C19.4517 9.23711 19.3817 9.04968 19.2375 8.90757H19.2417ZM10.7807 21.1829C10.5212 21.4424 10.1814 21.6154 9.81476 21.636C9.39665 21.6587 9.00327 21.5083 8.7108 21.2179L6.91893 19.4261H12.5376L10.7787 21.185L10.7807 21.1829ZM14.2141 17.7495H5.24239L2.90472 15.4139H16.5497L14.2121 17.7495H14.2141ZM2.90472 13.7374L5.17031 11.4718H14.2862L16.5518 13.7374H2.90472ZM14.7496 9.79732H1.69572L8.7108 2.78224C9.00327 2.48978 9.39665 2.33942 9.8127 2.36414C10.1814 2.38474 10.5253 2.56392 10.7869 2.8255L17.7567 9.79526H14.7476L14.7496 9.79732Z"
            fill="currentColor" />
        <path
            d="M7.78906 6.67907C7.78906 7.75008 8.65616 8.61718 9.72717 8.61718C10.7982 8.61718 11.6653 7.75008 11.6653 6.67907C11.6653 5.60807 10.7982 4.74097 9.72717 4.74097C8.65616 4.74097 7.78906 5.60807 7.78906 6.67907Z"
            fill="currentColor" />
        <path
            d="M28.6055 2.66284H36.6462C40.1641 2.66284 42.4379 5.05818 42.4379 8.38036C42.4379 11.3853 40.1641 14.1226 36.6462 14.1226H32.8586V20.2809H28.6055V2.66284ZM38.088 8.38036C38.088 7.28052 37.3053 6.40106 35.8883 6.40106H32.8586V10.3844H35.8883C37.3053 10.3844 38.088 9.4802 38.088 8.38036Z"
            fill="currentColor" />
        <path d="M43.5117 2.66284H47.7648V20.2809H43.5117V2.66284Z" fill="currentColor" />
        <path
            d="M49.8888 2.66284H62.1559V6.37634H54.1398V9.1383H60.4691V12.8518H54.1398V16.5653H62.4236V20.2788H49.8867V2.66284H49.8888Z"
            fill="currentColor" />
        <path
            d="M63.5469 2.66284H71.5876C75.1055 2.66284 77.404 4.81309 77.404 8.16204C77.404 9.89624 76.4504 11.6572 75.0087 12.6335C76.0344 13.2205 76.6214 14.1246 76.9138 15.4202L77.5008 18.0359C77.6965 18.8906 78.0137 19.8195 78.2835 20.285H73.5917C73.396 19.9431 73.1756 19.284 73.0788 18.6723L72.6875 16.2275C72.395 14.4192 71.3673 13.6365 69.217 13.6365H67.8V20.2829H63.5469V2.66284ZM73.052 8.16204C73.052 7.03748 72.2447 6.40312 70.8524 6.40312H67.7979V9.92302H70.8524C72.2447 9.92302 73.052 9.26394 73.052 8.1641V8.16204Z"
            fill="currentColor" />
        <path
            d="M85.5153 6.37634H80.3848V2.66284H94.901V6.37634H89.7705V20.2809H85.5173V6.37634H85.5153Z"
            fill="currentColor" />
        <path
            d="M112.859 10.9714L114.643 2.66284H119.115L114.276 20.2809H109.463L107.459 12.168C106.897 9.84681 106.555 7.96431 106.555 7.96431C106.555 7.96431 106.139 9.84681 105.552 12.168L103.501 20.2809H98.784L93.8965 2.66284H98.5142L100.347 10.9714C100.86 13.2926 101.153 15.1998 101.153 15.1998C101.153 15.1998 101.494 13.2946 102.007 10.9714L103.84 2.66284H109.34L111.173 10.9714C111.685 13.2926 112.003 15.1998 112.003 15.1998C112.003 15.1998 112.369 13.2946 112.857 10.9714H112.859Z"
            fill="currentColor" />
        <path
            d="M118.77 11.4594C118.77 6.30412 122.654 2.46704 127.933 2.46704C133.212 2.46704 136.999 6.27941 136.999 11.4594C136.999 16.6393 133.137 20.4764 127.933 20.4764C122.728 20.4764 118.77 16.6393 118.77 11.4594ZM132.649 11.4594C132.649 8.45437 130.67 6.18054 127.908 6.18054C125.146 6.18054 123.119 8.45231 123.119 11.4594C123.119 14.4664 125.099 16.7629 127.908 16.7629C130.717 16.7629 132.649 14.4911 132.649 11.4594Z"
            fill="currentColor" />
    </g>
    <defs>
        <clipPath id="clip0_3636_4812">
            <rect width="137" height="22.6291" fill="currentColor" transform="translate(0 0.685547)" />
        </clipPath>
    </defs>
</svg>